<svg width="420" height="280" viewBox="0 0 420 280" xmlns="http://www.w3.org/2000/svg"><defs><marker id="arrowBlack" markerWidth="10" markerHeight="7" refX="9" refY="3.5" orient="auto"><path d="M0,0 L10,3.5 L0,7 Z" fill="#111"/></marker><marker id="arrowBlue" markerWidth="10" markerHeight="7" refX="9" refY="3.5" orient="auto"><path d="M0,0 L10,3.5 L0,7 Z" fill="#2e6f95"/></marker><style>.wire{fill:none;stroke:#111;stroke-width:2.3;stroke-linecap:round;stroke-linejoin:round}.blue{fill:none;stroke:#2e6f95;stroke-width:3;stroke-linecap:round;marker-end:url(#arrowBlue)}.black{fill:none;stroke:#111;stroke-width:2.5;stroke-linecap:round;marker-end:url(#arrowBlack)}.txt{font-family:'Times New Roman',serif;font-size:24px;font-style:italic}.unit{font-family:'Times New Roman',serif;font-size:21px}</style></defs><rect width="420" height="280" fill="#fff"/><g transform="rotate(-18 210 142)"><path d="M96 96 L328 96" class="wire"/><path d="M96 178 L328 178" class="wire"/><path d="M96 96 C72 96 60 178 96 178" fill="#e2e2d3" stroke="#111" stroke-width="2.3"/><path d="M328 96 C360 96 370 178 328 178" fill="#e2e2d3" stroke="#111" stroke-width="2.3"/><path d="M96 96 L328 96 C360 96 370 178 328 178 L96 178 C72 178 72 96 96 96 Z" fill="#d5d5c6" opacity=".55"/><ellipse cx="96" cy="137" rx="20" ry="41" fill="#dcdccd" stroke="#111" stroke-width="2.3"/><ellipse cx="214" cy="137" rx="35" ry="53" fill="#c9cdc0" stroke="#111" stroke-width="2.5"/><path d="M199 90 C219 118 226 154 218 190" fill="none" stroke="#e8e8dc" stroke-width="2"/></g><path d="M75 74 C105 87 132 94 164 95" class="black"/><text x="36" y="61" class="txt">A</text><text x="57" y="61" class="unit">(m²)</text><path d="M214 55 L304 27" class="blue"/><text x="218" y="42" class="txt">i</text><path d="M255 202 L352 169" class="blue"/><text x="191" y="238" class="txt">u</text><text x="213" y="238" class="unit">(m/s)</text></svg>