<svg width="520" height="360" viewBox="0 0 520 360" xmlns="http://www.w3.org/2000/svg"><defs><marker id="a" markerWidth="12" markerHeight="8" refX="10" refY="4" orient="auto"><path d="M0,0 L12,4 L0,8 Z" fill="#111"/></marker><marker id="b" markerWidth="12" markerHeight="8" refX="10" refY="4" orient="auto"><path d="M0,0 L12,4 L0,8 Z" fill="#2f6f95"/></marker></defs><rect width="520" height="360" fill="#fff"/><g transform="translate(60 15) rotate(-6 220 150)"><path d="M95 185 L335 95" fill="none" stroke="#111" stroke-width="3"/><path d="M105 255 L345 165" fill="none" stroke="#111" stroke-width="3"/><path d="M95 185 L335 95 C354 97 370 109 377 126 C384 143 371 160 345 165 L105 255 C102 251 88 241 80 225 C72 210 78 192 95 185 Z" fill="#d2d2c2"/><ellipse cx="92" cy="221" rx="25" ry="38" transform="rotate(-20 92 221)" fill="#b9bdac" stroke="#111" stroke-width="3"/><ellipse cx="235" cy="167" rx="43" ry="61" transform="rotate(-20 235 167)" fill="#c9cdbd" stroke="#111" stroke-width="3"/></g><path d="M83 103 C115 118 145 126 178 126" fill="none" stroke="#111" stroke-width="4" marker-end="url(#a)"/><text x="32" y="86" font-family="Times New Roman" font-size="30" font-style="italic">A</text><text x="56" y="86" font-family="Times New Roman" font-size="25">(m²)</text><path d="M250 61 L351 36" fill="none" stroke="#2f6f95" stroke-width="5" marker-end="url(#b)"/><text x="253" y="49" font-family="Times New Roman" font-size="30" font-style="italic">i</text><path d="M323 210 L436 180" fill="none" stroke="#2f6f95" stroke-width="5" marker-end="url(#b)"/><text x="228" y="264" font-family="Times New Roman" font-size="30" font-style="italic">u</text><text x="253" y="264" font-family="Times New Roman" font-size="25">(m/s)</text></svg>